<svg width="329" height="55" viewBox="0 0 329 55" fill="none" xmlns="http://www.w3.org/2000/svg">
<path d="M88.36 28.44C88.36 29.24 88.3067 29.96 88.2 30.6H72C72.1333 32.2 72.6933 33.4533 73.68 34.36C74.6667 35.2667 75.88 35.72 77.32 35.72C79.4 35.72 80.88 34.8267 81.76 33.04H87.8C87.16 35.1733 85.9333 36.9333 84.12 38.32C82.3067 39.68 80.08 40.36 77.44 40.36C75.3067 40.36 73.3867 39.8933 71.68 38.96C70 38 68.68 36.6533 67.72 34.92C66.7867 33.1867 66.32 31.1867 66.32 28.92C66.32 26.6267 66.7867 24.6133 67.72 22.88C68.6533 21.1467 69.96 19.8133 71.64 18.88C73.32 17.9467 75.2533 17.48 77.44 17.48C79.5467 17.48 81.4267 17.9333 83.08 18.84C84.76 19.7467 86.0533 21.04 86.96 22.72C87.8933 24.3733 88.36 26.28 88.36 28.44ZM82.56 26.84C82.5333 25.4 82.0133 24.2533 81 23.4C79.9867 22.52 78.7467 22.08 77.28 22.08C75.8933 22.08 74.72 22.5067 73.76 23.36C72.8267 24.1867 72.2533 25.3467 72.04 26.84H82.56ZM96.3755 16.32V40H91.8955V16.32H96.3755ZM117.282 30.752C117.282 31.392 117.239 31.968 117.154 32.48H104.194C104.3 33.76 104.748 34.7627 105.538 35.488C106.327 36.2133 107.298 36.576 108.45 36.576C110.114 36.576 111.298 35.8613 112.002 34.432H116.834C116.322 36.1387 115.34 37.5467 113.89 38.656C112.439 39.744 110.658 40.288 108.546 40.288C106.839 40.288 105.303 39.9147 103.938 39.168C102.594 38.4 101.538 37.3227 100.77 35.936C100.023 34.5493 99.6497 32.9493 99.6497 31.136C99.6497 29.3013 100.023 27.6907 100.77 26.304C101.516 24.9173 102.562 23.8507 103.906 23.104C105.25 22.3573 106.796 21.984 108.546 21.984C110.231 21.984 111.735 22.3467 113.058 23.072C114.402 23.7973 115.436 24.832 116.162 26.176C116.908 27.4987 117.282 29.024 117.282 30.752ZM112.642 29.472C112.62 28.32 112.204 27.4027 111.394 26.72C110.583 26.016 109.591 25.664 108.418 25.664C107.308 25.664 106.37 26.0053 105.602 26.688C104.855 27.3493 104.396 28.2773 104.226 29.472H112.642ZM119.4 31.136C119.4 29.3013 119.773 27.7013 120.52 26.336C121.266 24.9493 122.301 23.8827 123.624 23.136C124.946 22.368 126.461 21.984 128.168 21.984C130.365 21.984 132.178 22.5387 133.608 23.648C135.058 24.736 136.029 26.272 136.52 28.256H131.688C131.432 27.488 130.994 26.8907 130.376 26.464C129.778 26.016 129.032 25.792 128.136 25.792C126.856 25.792 125.842 26.2613 125.096 27.2C124.349 28.1173 123.976 29.4293 123.976 31.136C123.976 32.8213 124.349 34.1333 125.096 35.072C125.842 35.9893 126.856 36.448 128.136 36.448C129.949 36.448 131.133 35.6373 131.688 34.016H136.52C136.029 35.936 135.058 37.4613 133.608 38.592C132.157 39.7227 130.344 40.288 128.168 40.288C126.461 40.288 124.946 39.9147 123.624 39.168C122.301 38.4 121.266 37.3333 120.52 35.968C119.773 34.5813 119.4 32.9707 119.4 31.136ZM145.018 25.952V34.528C145.018 35.1253 145.156 35.5627 145.434 35.84C145.732 36.096 146.223 36.224 146.906 36.224H148.986V40H146.17C142.394 40 140.506 38.1653 140.506 34.496V25.952H138.394V22.272H140.506V17.888H145.018V22.272H148.986V25.952H145.018ZM156.688 25.024C157.264 24.0853 158.011 23.3493 158.928 22.816C159.867 22.2827 160.933 22.016 162.128 22.016V26.72H160.944C159.536 26.72 158.469 27.0507 157.744 27.712C157.04 28.3733 156.688 29.5253 156.688 31.168V40H152.208V22.272H156.688V25.024ZM173.018 40.288C171.311 40.288 169.775 39.9147 168.41 39.168C167.044 38.4 165.967 37.3227 165.178 35.936C164.41 34.5493 164.026 32.9493 164.026 31.136C164.026 29.3227 164.42 27.7227 165.21 26.336C166.02 24.9493 167.119 23.8827 168.506 23.136C169.892 22.368 171.439 21.984 173.146 21.984C174.852 21.984 176.399 22.368 177.786 23.136C179.172 23.8827 180.26 24.9493 181.05 26.336C181.86 27.7227 182.266 29.3227 182.266 31.136C182.266 32.9493 181.85 34.5493 181.017 35.936C180.207 37.3227 179.098 38.4 177.69 39.168C176.303 39.9147 174.746 40.288 173.018 40.288ZM173.018 36.384C173.828 36.384 174.586 36.192 175.29 35.808C176.015 35.4027 176.591 34.8053 177.018 34.016C177.444 33.2267 177.658 32.2667 177.658 31.136C177.658 29.4507 177.21 28.16 176.314 27.264C175.439 26.3467 174.362 25.888 173.082 25.888C171.802 25.888 170.724 26.3467 169.85 27.264C168.996 28.16 168.57 29.4507 168.57 31.136C168.57 32.8213 168.986 34.1227 169.818 35.04C170.671 35.936 171.738 36.384 173.018 36.384ZM195.376 22.016C197.488 22.016 199.194 22.688 200.496 24.032C201.797 25.3547 202.448 27.2107 202.448 29.6V40H197.968V30.208C197.968 28.8 197.616 27.7227 196.912 26.976C196.208 26.208 195.248 25.824 194.032 25.824C192.794 25.824 191.813 26.208 191.088 26.976C190.384 27.7227 190.032 28.8 190.032 30.208V40H185.552V22.272H190.032V24.48C190.629 23.712 191.386 23.1147 192.304 22.688C193.242 22.24 194.266 22.016 195.376 22.016ZM208.98 20.16C208.191 20.16 207.529 19.9147 206.996 19.424C206.484 18.912 206.228 18.2827 206.228 17.536C206.228 16.7893 206.484 16.1707 206.996 15.68C207.529 15.168 208.191 14.912 208.98 14.912C209.769 14.912 210.42 15.168 210.932 15.68C211.465 16.1707 211.732 16.7893 211.732 17.536C211.732 18.2827 211.465 18.912 210.932 19.424C210.42 19.9147 209.769 20.16 208.98 20.16ZM211.188 22.272V40H206.708V22.272H211.188ZM214.462 31.136C214.462 29.3013 214.836 27.7013 215.582 26.336C216.329 24.9493 217.364 23.8827 218.686 23.136C220.009 22.368 221.524 21.984 223.23 21.984C225.428 21.984 227.241 22.5387 228.67 23.648C230.121 24.736 231.092 26.272 231.582 28.256H226.75C226.494 27.488 226.057 26.8907 225.438 26.464C224.841 26.016 224.094 25.792 223.198 25.792C221.918 25.792 220.905 26.2613 220.158 27.2C219.412 28.1173 219.038 29.4293 219.038 31.136C219.038 32.8213 219.412 34.1333 220.158 35.072C220.905 35.9893 221.918 36.448 223.198 36.448C225.012 36.448 226.196 35.6373 226.75 34.016H231.582C231.092 35.936 230.121 37.4613 228.67 38.592C227.22 39.7227 225.406 40.288 223.23 40.288C221.524 40.288 220.009 39.9147 218.686 39.168C217.364 38.4 216.329 37.3333 215.582 35.968C214.836 34.5813 214.462 32.9707 214.462 31.136ZM247.536 28.544C248.795 28.7787 249.83 29.408 250.64 30.432C251.451 31.456 251.856 32.6293 251.856 33.952C251.856 35.1467 251.558 36.2027 250.96 37.12C250.384 38.016 249.542 38.72 248.432 39.232C247.323 39.744 246.011 40 244.496 40H234.864V17.664H244.08C245.595 17.664 246.896 17.9093 247.984 18.4C249.094 18.8907 249.926 19.5733 250.48 20.448C251.056 21.3227 251.344 22.3147 251.344 23.424C251.344 24.7253 250.992 25.8133 250.288 26.688C249.606 27.5627 248.688 28.1813 247.536 28.544ZM239.344 26.88H243.44C244.507 26.88 245.328 26.6453 245.904 26.176C246.48 25.6853 246.768 24.992 246.768 24.096C246.768 23.2 246.48 22.5067 245.904 22.016C245.328 21.5253 244.507 21.28 243.44 21.28H239.344V26.88ZM243.856 36.352C244.944 36.352 245.787 36.096 246.384 35.584C247.003 35.072 247.312 34.3467 247.312 33.408C247.312 32.448 246.992 31.7013 246.352 31.168C245.712 30.6133 244.848 30.336 243.76 30.336H239.344V36.352H243.856ZM254.275 31.072C254.275 29.28 254.627 27.6907 255.331 26.304C256.056 24.9173 257.027 23.8507 258.243 23.104C259.48 22.3573 260.856 21.984 262.371 21.984C263.693 21.984 264.845 22.2507 265.827 22.784C266.829 23.3173 267.629 23.9893 268.227 24.8V22.272H272.739V40H268.227V37.408C267.651 38.24 266.851 38.9333 265.827 39.488C264.824 40.0213 263.661 40.288 262.339 40.288C260.845 40.288 259.48 39.904 258.243 39.136C257.027 38.368 256.056 37.2907 255.331 35.904C254.627 34.496 254.275 32.8853 254.275 31.072ZM268.227 31.136C268.227 30.048 268.013 29.12 267.587 28.352C267.16 27.5627 266.584 26.9653 265.859 26.56C265.133 26.1333 264.355 25.92 263.523 25.92C262.691 25.92 261.923 26.1227 261.219 26.528C260.515 26.9333 259.939 27.5307 259.491 28.32C259.064 29.088 258.851 30.0053 258.851 31.072C258.851 32.1387 259.064 33.0773 259.491 33.888C259.939 34.6773 260.515 35.2853 261.219 35.712C261.944 36.1387 262.712 36.352 263.523 36.352C264.355 36.352 265.133 36.1493 265.859 35.744C266.584 35.3173 267.16 34.72 267.587 33.952C268.013 33.1627 268.227 32.224 268.227 31.136ZM286.938 22.016C289.05 22.016 290.757 22.688 292.058 24.032C293.36 25.3547 294.01 27.2107 294.01 29.6V40H289.53V30.208C289.53 28.8 289.178 27.7227 288.474 26.976C287.77 26.208 286.81 25.824 285.594 25.824C284.357 25.824 283.376 26.208 282.65 26.976C281.946 27.7227 281.594 28.8 281.594 30.208V40H277.114V22.272H281.594V24.48C282.192 23.712 282.949 23.1147 283.866 22.688C284.805 22.24 285.829 22.016 286.938 22.016ZM308.767 40L302.751 32.448V40H298.271V16.32H302.751V29.792L308.703 22.272H314.527L306.719 31.168L314.591 40H308.767Z" fill="#5CE1E6"/>
<path d="M25.5 4C20.4566 4 15.5264 5.49555 11.333 8.29752C7.13951 11.0995 3.87111 15.0821 1.94107 19.7416C0.0110381 24.4011 -0.493948 29.5283 0.489974 34.4748C1.4739 39.4213 3.90253 43.965 7.46877 47.5312C11.035 51.0975 15.5787 53.5261 20.5252 54.51C25.4717 55.4939 30.5989 54.989 35.2584 53.0589C39.9179 51.1289 43.9005 47.8605 46.7025 43.667C49.5044 39.4736 51 34.5434 51 29.5L38.25 29.5C38.25 32.0217 37.5022 34.4868 36.1012 36.5835C34.7002 38.6803 32.709 40.3144 30.3792 41.2795C28.0495 42.2445 25.4859 42.497 23.0126 42.005C20.5393 41.5131 18.2675 40.2987 16.4844 38.5156C14.7013 36.7325 13.4869 34.4607 12.995 31.9874C12.503 29.5141 12.7555 26.9505 13.7205 24.6208C14.6856 22.291 16.3198 20.2997 18.4165 18.8988C20.5132 17.4978 22.9783 16.75 25.5 16.75V4Z" fill="white"/>
<path d="M25.5 4C22.1513 4 18.8354 4.65958 15.7416 5.94107C12.6478 7.22257 9.83667 9.10088 7.46878 11.4688C5.10088 13.8367 3.22257 16.6478 1.94107 19.7416C0.659576 22.8354 -5.05641e-07 26.1513 0 29.5L12.75 29.5C12.75 27.8256 13.0798 26.1677 13.7205 24.6208C14.3613 23.0739 15.3004 21.6683 16.4844 20.4844C17.6683 19.3004 19.0739 18.3613 20.6208 17.7205C22.1677 17.0798 23.8256 16.75 25.5 16.75V4Z" fill="#5CE1E6"/>
<circle cx="25.5" cy="29.5" r="7.96875" fill="#5CE1E6"/>
<path d="M33.4688 29.5C33.4688 28.4535 33.2626 27.4173 32.8622 26.4505C32.4617 25.4837 31.8747 24.6052 31.1348 23.8652C30.3948 23.1253 29.5163 22.5383 28.5495 22.1378C27.5827 21.7374 26.5465 21.5312 25.5 21.5313C24.4535 21.5313 23.4173 21.7374 22.4505 22.1378C21.4837 22.5383 20.6052 23.1253 19.8652 23.8652C19.1253 24.6052 18.5383 25.4837 18.1378 26.4505C17.7374 27.4173 17.5312 28.4535 17.5313 29.5L25.5 29.5H33.4688Z" fill="white"/>
</svg>
